<svg width="100" height="100" viewBox="0 0 100 100" fill="none" xmlns="http://www.w3.org/2000/svg">
<g clip-path="url(#clip0_40_113)">
<path d="M73.5336 28.8044H1.26807L37.4008 1.2738L73.5336 28.8044Z" fill="#57CEAE"/>
<path d="M19.0272 19.3819L40.0972 3.32806L37.401 1.2738L1.26807 28.8044H33.6855C34.5521 28.8044 35.2602 28.1138 35.2804 27.2491C35.3013 26.3553 34.581 25.6195 33.6855 25.6195H21.1396C17.8087 25.6195 16.3793 21.3993 19.0272 19.3819Z" fill="#6DF7AE"/>
<path d="M61.9162 19.9755C61.9266 19.9755 61.9368 19.9764 61.9472 19.9764L58.5302 17.3727C52.7423 18.6447 48.1374 23.1017 46.6687 28.8044H49.7683C51.4219 23.6823 56.2342 19.9755 61.9162 19.9755Z" fill="#6DF7AE"/>
<path d="M44.2591 8.0215C43.4029 8.67788 43.4048 9.96682 44.2629 10.6206L49.8225 14.8566C50.4816 15.3587 51.4125 15.2909 51.9914 14.6983C52.6787 13.9951 52.5948 12.8504 51.8125 12.2543L46.2529 8.01831C45.664 7.5698 44.8465 7.57107 44.2591 8.0215Z" fill="white"/>
<path d="M70.0301 64.0511H4.77197V72.7349H70.0301V64.0511Z" fill="#57CEAE"/>
<path d="M8.60091 66.8262V64.0511H4.77197V72.7349H70.0301V69.55H11.3296C9.82261 69.55 8.60091 68.3304 8.60091 66.8262Z" fill="#6DF7AE"/>
<path d="M54.9802 67.1423H41.054C40.2004 67.1423 39.5083 66.4502 39.5083 65.5966C39.5083 64.743 40.2004 64.0508 41.054 64.0508H54.9802C55.8338 64.0508 56.526 64.743 56.526 65.5966C56.5257 66.4504 55.8338 67.1423 54.9802 67.1423Z" fill="white"/>
<path d="M66.1181 28.8044H8.68384V64.0508H66.1181V28.8044Z" fill="white"/>
<path d="M45.6379 47.7017H35.2202C34.5153 47.7017 33.9438 47.1313 33.9438 46.4277C33.9438 45.7241 34.5153 45.1536 35.2202 45.1536H45.6379C46.3428 45.1536 46.9143 45.7241 46.9143 46.4277C46.9143 47.1313 46.3428 47.7017 45.6379 47.7017Z" fill="#310E31"/>
<path d="M41.3834 55.3455H30.9657C30.2608 55.3455 29.6893 54.7751 29.6893 54.0715C29.6893 53.3679 30.2608 52.7974 30.9657 52.7974H41.3834C42.0883 52.7974 42.6598 53.3679 42.6598 54.0715C42.6598 54.7751 42.0883 55.3455 41.3834 55.3455Z" fill="#310E31"/>
<path d="M41.3834 40.0579H30.9657C30.2608 40.0579 29.6893 39.4874 29.6893 38.7838C29.6893 38.0802 30.2608 37.5098 30.9657 37.5098H41.3834C42.0883 37.5098 42.6598 38.0802 42.6598 38.7838C42.6598 39.4874 42.0883 40.0579 41.3834 40.0579Z" fill="#310E31"/>
<path d="M66.1181 28.8044H56.4839V64.0508H66.1181V28.8044Z" fill="white"/>
<path d="M59.8875 28.8044H56.4839V64.0508H59.8875V28.8044Z" fill="#D7DADD"/>
<path d="M18.2562 28.8044H8.68384V64.0508H18.2562V28.8044Z" fill="white"/>
<path d="M12.0875 28.8044H8.68384V64.0508H12.0875V28.8044Z" fill="#D7DADD"/>
<path d="M94.4686 98.7262H60.7415C58.3913 98.7262 56.4862 96.8211 56.4862 94.4709V41.6781C56.4862 39.3279 58.3913 37.4228 60.7415 37.4228H94.4686C96.8188 37.4228 98.7239 39.3279 98.7239 41.6781V94.4709C98.7239 96.8209 96.8186 98.7262 94.4686 98.7262Z" fill="#7373FF"/>
<path d="M62.0168 53.7556C62.0168 46.4943 67.914 40.6077 75.1889 40.6077H98.5843C98.1113 38.777 96.4511 37.4228 94.4694 37.4228H60.7404C58.3909 37.4228 56.486 39.3241 56.486 41.6694V94.4796C56.486 96.8249 58.3906 98.7262 60.7404 98.7262H62.0168V53.7556Z" fill="#8888FF"/>
<path d="M97.3479 90.2064C96.5881 90.2064 95.9722 89.5904 95.9722 88.8307V48.5223C95.9722 47.7626 96.5881 47.1466 97.3479 47.1466C98.1077 47.1466 98.7237 47.7626 98.7237 48.5223V88.8307C98.7239 89.5904 98.1079 90.2064 97.3479 90.2064Z" fill="#C5C5FF"/>
<path d="M81.8684 95.9053H69.862C69.083 95.9053 68.4515 96.5368 68.4515 97.3158C68.4515 98.0947 69.083 98.7262 69.862 98.7262H81.8684C82.6473 98.7262 83.2788 98.0947 83.2788 97.3158C83.2788 96.5368 82.6473 95.9053 81.8684 95.9053Z" fill="white"/>
<path d="M91.2596 95.9053H87.6988C86.9198 95.9053 86.2883 96.5368 86.2883 97.3158C86.2883 98.0947 86.9198 98.7262 87.6988 98.7262H91.2596C92.0385 98.7262 92.67 98.0947 92.67 97.3158C92.67 96.5368 92.0385 95.9053 91.2596 95.9053Z" fill="white"/>
<path d="M77.6049 47.1304C74.1157 47.1304 71.287 44.3019 71.287 40.8128V37.423H83.9225V40.8128C83.9227 44.3019 81.094 47.1304 77.6049 47.1304Z" fill="#D7DADD"/>
<path d="M75.3402 37.4228L76.8304 38.563C78.0119 39.467 78.4868 41.0209 78.0117 42.4292C77.5947 43.6649 77.9062 45.0298 78.8183 45.9634L79.6323 46.7968C82.1266 45.9534 83.9228 43.599 83.9228 40.8245V37.423H75.3402V37.4228Z" fill="#A9B1B8"/>
<path d="M77.6049 43.5506C78.4272 43.5506 79.0938 42.8852 79.0938 42.0643C79.0938 41.2434 78.4272 40.5779 77.6049 40.5779C76.7826 40.5779 76.116 41.2434 76.116 42.0643C76.116 42.8852 76.7826 43.5506 77.6049 43.5506Z" fill="#310E31"/>
<path d="M76.7081 92.8347L74.3525 90.4956C73.8528 89.9994 73.8506 89.1928 74.3479 88.6941C74.8449 88.1951 75.6532 88.193 76.1528 88.6894L77.5979 90.1245L83.6547 83.9719C84.1489 83.47 84.9568 83.463 85.4596 83.956C85.9623 84.4492 85.9694 85.2558 85.4755 85.7575L78.5187 92.8243C78.2802 93.0664 77.556 93.5102 76.7081 92.8347Z" fill="#310E31"/>
<path d="M77.535 79.0326C84.584 79.0326 90.2982 73.3289 90.2982 66.293C90.2982 59.2571 84.584 53.5534 77.535 53.5534C70.4861 53.5534 64.7719 59.2571 64.7719 66.293C64.7719 73.3289 70.4861 79.0326 77.535 79.0326Z" fill="#FFCB5B"/>
<path d="M83.7645 55.1744L66.3826 72.487C66.9545 73.5106 67.6619 74.4483 68.4836 75.2734L86.5521 57.277C85.727 56.4551 84.7887 55.7474 83.7645 55.1744Z" fill="#F6B545"/>
<path d="M72.5421 78.0202C74.0757 78.6717 75.7632 79.0326 77.5351 79.0326C84.584 79.0326 90.2983 73.3287 90.2983 66.293C90.2983 64.534 89.941 62.8581 89.2953 61.334L72.5421 78.0202Z" fill="#F6B545"/>
<path d="M86.5519 57.277L68.4834 75.2734C69.6374 76.4324 71.0132 77.3711 72.5421 78.0204L89.2953 61.3343C88.6481 59.8064 87.7104 58.4313 86.5519 57.277Z" fill="#FFCB5B"/>
<path d="M67.5374 66.293C67.5374 60.7902 72.0223 56.3136 77.5353 56.3136C77.5946 56.3136 77.6538 56.3117 77.7123 56.3081C79.4532 56.1983 79.3485 53.563 77.6042 53.5536C77.5812 53.5534 77.5583 53.5534 77.5353 53.5534C70.4864 53.5534 64.7721 59.2572 64.7721 66.293C64.7721 66.3162 64.7721 66.3394 64.7723 66.3626C64.7819 68.1036 67.4215 68.2081 67.5319 66.4706C67.5355 66.4117 67.5374 66.3526 67.5374 66.293Z" fill="#F9DE79"/>
<path d="M90.2983 66.293C90.2983 66.27 90.2983 66.2472 90.2981 66.2245C90.2888 64.4834 87.6485 64.3789 87.5385 66.1166C87.5349 66.1749 87.533 66.2338 87.533 66.2932C87.533 71.796 83.0481 76.2726 77.5351 76.2726C77.4754 76.2726 77.4162 76.2745 77.3575 76.2781C75.6166 76.3883 75.7213 79.023 77.4656 79.0326C77.4888 79.0328 77.512 79.0328 77.5351 79.0328C84.5841 79.0328 90.2983 73.3289 90.2983 66.293Z" fill="#F19920"/>
<path d="M77.5353 80.3066C69.7938 80.3066 63.4957 74.0202 63.4957 66.293C63.4957 58.5657 69.7938 52.2794 77.5353 52.2794C85.2768 52.2794 91.5749 58.5657 91.5749 66.293C91.5749 74.0202 85.2766 80.3066 77.5353 80.3066ZM77.5353 54.8274C71.2015 54.8274 66.0485 59.9708 66.0485 66.2932C66.0485 72.6155 71.2015 77.7589 77.5353 77.7589C83.8691 77.7589 89.0221 72.6155 89.0221 66.2932C89.0221 59.9708 83.8691 54.8274 77.5353 54.8274Z" fill="#310E31"/>
<path d="M78.3988 65.1251V61.5578C79.1209 61.7055 79.8085 62.0236 80.3998 62.4857C80.5481 62.5898 80.7217 62.6459 80.9032 62.6485C81.4666 62.6485 81.93 62.18 81.9362 61.6034C81.9373 61.3498 81.8422 61.1108 81.6605 60.9229C80.7458 60.1219 79.5877 59.6319 78.3883 59.5364V58.3749C78.3883 57.9423 78.0449 57.5904 77.6398 57.5904C77.2039 57.5497 76.8073 57.9298 76.8096 58.3749V59.4942C74.4464 59.7104 72.8062 61.2593 72.8062 63.2923C72.8062 65.7255 74.689 66.4785 76.8096 67.0706V71.1632C75.8471 71.0051 74.9488 70.5855 74.2011 69.9427C74.0313 69.8044 73.8171 69.7255 73.5871 69.7208C73.0351 69.7602 72.6083 70.2342 72.6156 70.7981C72.6143 71.0515 72.7096 71.2906 72.889 71.4763C73.9739 72.4753 75.3658 73.0629 76.82 73.1389V74.2106C76.8151 74.6459 77.2083 75.027 77.6305 74.9963C78.0541 74.9963 78.3988 74.644 78.3988 74.2106V73.1136C81.3868 72.8649 82.4549 70.8851 82.4549 69.098C82.4551 66.5059 80.3783 65.6793 78.3988 65.1251ZM80.2726 69.3368C80.2726 70.0949 79.7771 70.9649 78.3988 71.1863V67.5536C79.5366 67.9015 80.2817 68.3529 80.2726 69.3368ZM76.8202 61.4695V64.7066C75.7834 64.387 75.0098 64.0459 75.0098 63.1625C75.0098 62.2544 75.7156 61.6002 76.8202 61.4695Z" fill="#310E31"/>
<path d="M61.9161 45.4547C68.9651 45.4547 74.6793 39.751 74.6793 32.7151C74.6793 25.6792 68.9651 19.9755 61.9161 19.9755C54.8672 19.9755 49.153 25.6792 49.153 32.7151C49.153 39.751 54.8672 45.4547 61.9161 45.4547Z" fill="#FFCB5B"/>
<path d="M68.1452 21.5966L50.7633 38.9091C51.3352 39.9327 52.0427 40.8704 52.8644 41.6955L70.9329 23.6991C70.1078 22.877 69.1695 22.1695 68.1452 21.5966Z" fill="#F6B545"/>
<path d="M56.9231 44.4423C58.4567 45.0938 60.1442 45.4547 61.9161 45.4547C68.965 45.4547 74.6793 39.7508 74.6793 32.7151C74.6793 30.9562 74.322 29.2802 73.6763 27.7562L56.9231 44.4423Z" fill="#F6B545"/>
<path d="M70.9328 23.6992L52.8643 41.6955C54.0183 42.8545 55.394 43.7932 56.923 44.4426L73.6762 27.7564C73.0289 26.2285 72.0913 24.8534 70.9328 23.6992Z" fill="#FFCB5B"/>
<path d="M51.9183 32.7151C51.9183 27.2123 56.4032 22.7357 61.9161 22.7357C61.9755 22.7357 62.0347 22.7338 62.0932 22.7302C63.834 22.6204 63.7293 19.9851 61.9851 19.9757C61.9621 19.9755 61.9391 19.9755 61.9161 19.9755C54.8672 19.9755 49.153 25.6794 49.153 32.7151C49.153 32.7383 49.153 32.7615 49.1532 32.7845C49.1627 34.5255 51.8023 34.63 51.9127 32.8925C51.9164 32.8338 51.9183 32.7747 51.9183 32.7151Z" fill="#F9DE79"/>
<path d="M74.6791 32.7151C74.6791 32.6921 74.6791 32.6694 74.6789 32.6466C74.6695 30.9055 72.0293 30.8011 71.9193 32.5387C71.9157 32.597 71.9137 32.656 71.9137 32.7153C71.9137 38.2181 67.4289 42.6947 61.9159 42.6947C61.8561 42.6947 61.7969 42.6966 61.7382 42.7002C59.9974 42.8104 60.102 45.4451 61.8463 45.4547C61.8695 45.4549 61.8927 45.4549 61.9157 45.4549C68.9648 45.4549 74.6791 39.7511 74.6791 32.7151Z" fill="#F19920"/>
<path d="M94.4695 36.1489H75.5278C75.8064 35.0496 75.9557 33.8996 75.9557 32.7151C75.9557 25.1476 69.9142 18.9659 62.3934 18.7136L38.1755 0.261468C37.7183 -0.0868303 37.0838 -0.0868303 36.6266 0.261468L0.49401 27.7921C-0.472373 28.4791 0.0829466 30.1181 1.26848 30.0787H7.40784V62.7772H4.7721C4.0672 62.7772 3.49571 63.3476 3.49571 64.0513V72.7351C3.49571 73.4387 4.0672 74.0091 4.7721 74.0091H55.21V94.4798C55.21 97.5238 57.691 100 60.7406 100H94.4693C97.5191 100 100 97.5236 100 94.4798V41.6696C100 38.6255 97.5191 36.1489 94.4695 36.1489ZM82.6466 38.697V40.8244C82.6466 43.5991 80.3849 45.8566 77.6051 45.8566C75.137 45.8566 73.0787 44.0766 72.6478 41.7353C73.4249 40.8153 74.0874 39.7957 74.6093 38.6968H82.6466V38.697ZM37.401 2.87679L58.6717 19.0834C54.2019 20.1434 50.5553 23.3404 48.877 27.5306H5.04401L37.401 2.87679ZM9.96018 30.0787H16.98V62.7772H9.96018V30.0787ZM55.21 71.461H6.04848V65.3251H55.21V71.461ZM55.21 62.7772H19.5327V30.0787H48.1295C47.9659 30.9332 47.8768 31.8138 47.8768 32.7153C47.8768 38.0196 50.8449 42.6447 55.21 45.0238V62.7772ZM50.4295 32.7153C50.4295 26.393 55.5825 21.2496 61.9164 21.2496C68.2502 21.2496 73.4032 26.393 73.4032 32.7153C73.4032 39.0376 68.2502 44.181 61.9164 44.181C55.5823 44.181 50.4295 39.0374 50.4295 32.7153ZM97.4476 94.4798C97.4476 96.1189 96.1117 97.4523 94.4695 97.4523H60.7408C59.0987 97.4523 57.7627 96.1189 57.7627 94.4798V46.1025C59.0759 46.5093 60.4708 46.7289 61.9164 46.7289C65.1898 46.7289 68.2036 45.6032 70.5934 43.721C71.7349 46.4672 74.4457 48.4044 77.6051 48.4044C81.7925 48.4044 85.1991 45.004 85.1991 40.8244V38.697H94.4693C96.1115 38.697 97.4474 40.0304 97.4474 41.6696V94.4798H97.4476Z" fill="#310E31"/>
<path d="M62.7795 31.5472V27.98C63.5016 28.1277 64.1893 28.4458 64.7806 28.9079C64.9289 29.0119 65.1025 29.0681 65.284 29.0707C65.8474 29.0707 66.3108 28.6021 66.3169 28.0255C66.318 27.7719 66.2229 27.533 66.0412 27.3451C65.1265 26.5441 63.9684 26.0541 62.7691 25.9585V24.797C62.7691 24.3645 62.4257 24.0126 62.0206 24.0126C61.5846 23.9719 61.188 24.3519 61.1904 24.797V25.9164C58.8272 26.1326 57.1869 27.6815 57.1869 29.7145C57.1869 32.1477 59.0697 32.9007 61.1904 33.4928V37.5853C60.228 37.4272 59.3295 37.0077 58.5818 36.3649C58.4121 36.2266 58.1978 36.1477 57.9678 36.143C57.4159 36.1824 56.9891 36.6564 56.9963 37.2202C56.995 37.4736 57.0903 37.7128 57.2697 37.8985C58.3546 38.8975 59.7465 39.4851 61.2008 39.5611V40.6328C61.1959 41.0681 61.5891 41.4492 62.0112 41.4185C62.4348 41.4185 62.7795 41.0662 62.7795 40.6328V39.5358C65.7676 39.287 66.8357 37.3073 66.8357 35.5202C66.8359 32.9281 64.7591 32.1013 62.7795 31.5472ZM64.6533 35.7587C64.6533 36.5168 64.1578 37.3868 62.7795 37.6083V33.9755C63.9174 34.3236 64.6627 34.7749 64.6533 35.7587ZM61.201 27.8917V31.1287C60.1642 30.8092 59.3906 30.4681 59.3906 29.5847C59.3906 28.6766 60.0963 28.0224 61.201 27.8917Z" fill="#310E31"/>
<path d="M34.7857 90.6232L29.8366 87.1205C29.2615 86.7134 28.4651 86.8487 28.0572 87.4228C27.6496 87.9968 27.7851 88.7919 28.3602 89.199L30.0411 90.3885H15.0653C14.3604 90.3885 13.7889 90.959 13.7889 91.6626C13.7889 92.3662 14.3604 92.9366 15.0653 92.9366H29.5768L28.4247 93.6515C27.826 94.023 27.6423 94.8085 28.0145 95.406C28.3889 96.0087 29.1828 96.1836 29.7721 95.8153L34.7213 92.7445C35.486 92.3 35.5217 91.113 34.7857 90.6232Z" fill="#310E31"/>
<path d="M89.3545 9.06682H74.3789L76.0598 7.87725C76.6349 7.47023 76.7704 6.67512 76.3626 6.10108C75.9549 5.52725 75.1583 5.39171 74.5832 5.79874L69.634 9.3015C68.8979 9.79129 68.934 10.9785 69.6985 11.4228L74.6477 14.4936C75.237 14.8619 76.0309 14.6868 76.4053 14.0843C76.7774 13.4868 76.5938 12.7013 75.9951 12.3298L74.843 11.6149H89.3545C90.0594 11.6149 90.6309 11.0445 90.6309 10.3409C90.6309 9.63725 90.0594 9.06682 89.3545 9.06682Z" fill="#310E31"/>
</g>
<defs>
<clipPath id="clip0_40_113">
<rect width="100" height="100" fill="white"/>
</clipPath>
</defs>
</svg>
