<svg width="24" height="20" viewBox="0 0 24 20" fill="none" xmlns="http://www.w3.org/2000/svg">
<path d="M12 14.3161C12.451 14.3161 12.8855 14.2472 13.2952 14.1223L16.3779 17.33C15.0124 17.8639 13.531 18.1911 12 18.1911C5.5531 18.1911 0 12.4173 0 9.57997C0 8.13761 1.43172 5.93747 3.69103 4.12914L7.63448 8.23233C7.51448 8.65858 7.44828 9.11066 7.44828 9.57997C7.44828 12.1977 9.48414 14.3161 12 14.3161ZM4.38248 0.283844L20.9342 17.5061C21.2979 17.8841 21.2979 18.4976 20.9342 18.8761C20.7521 19.0651 20.5142 19.1598 20.2759 19.1598C20.0375 19.1598 19.7996 19.0651 19.6175 18.8761L3.06579 1.65387C2.70207 1.27584 2.70207 0.662302 3.06579 0.283844C3.42952 -0.0946146 4.01876 -0.0946146 4.38248 0.283844ZM12 0.968857C18.4469 0.968857 24 6.74261 24 9.57997C24 11.0223 22.5683 13.2225 20.309 15.0308L16.3655 10.9276C16.4855 10.5014 16.5517 10.0493 16.5517 9.57997C16.5517 6.96219 14.5159 4.84386 12 4.84386C11.549 4.84386 11.1145 4.91275 10.7048 5.03761L7.62207 1.82997C8.98759 1.29608 10.469 0.968857 12 0.968857Z" fill="#172836"/>
</svg>
