<svg width="22" height="26" viewBox="0 0 22 26" fill="none" xmlns="http://www.w3.org/2000/svg">
<path d="M21.0859 4.87402L11.7375 0.172393C11.2805 -0.0574643 10.7195 -0.0574643 10.2417 0.172393L0.91407 4.87402C0.353163 5.16657 0 5.73076 0 6.37854C0 13.922 2.59679 18.749 4.77809 21.4864C7.14636 24.4328 9.90935 26 11.0104 26C12.0907 26 14.8329 24.391 17.2219 21.382C19.4032 18.6237 22 13.7967 22 6.39944C22 5.75166 21.6468 5.16657 21.0859 4.87402ZM14.1058 12.6265H11.6128V15.134C11.6128 15.4893 11.3428 15.7609 10.9896 15.7609C10.6364 15.7609 10.3664 15.4893 10.3664 15.134V12.6265H7.87347C7.5203 12.6265 7.25024 12.3548 7.25024 11.9996C7.25024 11.6444 7.5203 11.3727 7.87347 11.3727H10.3664V8.86518C10.3664 8.50995 10.6364 8.2383 10.9896 8.2383C11.3428 8.2383 11.6128 8.50995 11.6128 8.86518V11.3727H14.1058C14.4589 11.3727 14.729 11.6444 14.729 11.9996C14.729 12.3548 14.4589 12.6265 14.1058 12.6265Z" fill="#172836"/>
</svg>
