<svg width="58" height="73" viewBox="0 0 58 73" fill="none" xmlns="http://www.w3.org/2000/svg">
  <path fill-rule="evenodd" clip-rule="evenodd"
    d="M6.55512 13.1102C10.1754 13.1102 13.1102 10.1754 13.1102 6.55511C13.1102 2.93482 10.1754 0 6.55512 0C2.93483 0 0 2.93482 0 6.55511C0 10.1754 2.93483 13.1102 6.55512 13.1102Z"
    fill="#232AE2" />
  <path fill-rule="evenodd" clip-rule="evenodd"
    d="M41.1032 2.35585C42.4039 0.103041 45.2845 -0.668826 47.5373 0.631837C49.7901 1.93249 50.562 4.81316 49.2613 7.06597L33.6542 34.0984C32.3535 36.3512 29.4728 37.1231 27.22 35.8224C24.9672 34.5217 24.1953 31.6411 25.496 29.3883L41.1032 2.35585ZM20.844 7.60245C22.1446 5.34963 25.0253 4.57777 27.2781 5.87843C29.5309 7.17909 30.3028 10.0597 29.0021 12.3126L16.7899 33.4647C15.4893 35.7175 12.6086 36.4894 10.3558 35.1887C8.10301 33.888 7.33114 31.0074 8.63181 28.7546L20.844 7.60245Z"
    fill="#172836" />
  <path
    d="M3.54 62H6.1L8.02 55.96L9.92 62H12.48L15.62 51.92H12.68L11.18 57.9L9.34 51.92H6.68L4.84 57.9L3.34 51.92H0.4L3.54 62ZM20.6855 51.76C18.5255 51.76 16.6855 53.04 16.3655 55.02L18.9255 55.5C19.0255 54.52 19.7255 53.94 20.6855 53.94C21.7655 53.94 22.4455 54.54 22.4455 55.54V55.6L20.6255 55.78C17.7255 56.08 16.2655 57.16 16.2655 59.16C16.2655 60.84 17.6455 62.16 19.6055 62.16C20.7255 62.16 21.8655 61.6 22.4455 60.72V62H25.2855V56.02C25.2855 53.18 23.4255 51.76 20.6855 51.76ZM20.3255 60.06C19.5055 60.06 19.0655 59.62 19.0655 59.06C19.0655 58.48 19.5655 57.98 20.5655 57.88L22.4455 57.66V57.74V57.8V57.82C22.4255 59 21.6455 60.06 20.3255 60.06ZM27.5058 47.84V50.66H30.6058V47.84H27.5058ZM27.5658 62H30.5058V51.92H27.5658V62ZM35.4206 62H38.0806L41.7406 51.92H38.7806L36.7406 58.6L34.7006 51.92H31.7606L35.4206 62ZM49.7955 54.74L49.9755 51.92C49.6955 51.82 49.2355 51.76 48.8955 51.76C47.6955 51.76 46.3955 52.58 45.9355 53.66V51.92H42.9955V62H45.9355V58.36C45.9355 55.5 47.1955 54.5 48.5155 54.5C48.9755 54.5 49.4555 54.58 49.7955 54.74Z"
    fill="#172836" />
</svg>