<svg width="24" height="26" viewBox="0 0 24 26" fill="none" xmlns="http://www.w3.org/2000/svg">
<path d="M21.741 0L16.3899 5.61937L15.2363 4.40437C14.0347 3.14086 12.0961 3.14086 10.8945 4.40437L8.66756 6.76687L7.99466 6.05812C7.88852 5.93789 7.73431 5.87672 7.5781 5.88937C7.37784 5.91047 7.20761 6.0518 7.14352 6.25008C7.07744 6.45047 7.12951 6.67195 7.2737 6.8175L17.5274 17.6175C17.6515 17.7778 17.8498 17.8516 18.0421 17.8052C18.2323 17.7588 18.3825 17.6006 18.4266 17.4002C18.4706 17.1977 18.4005 16.9889 18.2483 16.8581L17.5754 16.1494L19.8184 13.8037C21.02 12.5381 21.02 10.4962 19.8184 9.23062V9.21375L18.6649 7.99875L24 2.37937L21.741 0ZM6.05607 7.4925C5.85581 7.51359 5.68558 7.65492 5.6215 7.8532C5.55541 8.05359 5.60748 8.27508 5.75167 8.42062L6.42457 9.12937L4.18158 11.475C2.97997 12.7406 2.97997 14.7994 4.18158 16.065L5.33511 17.28L0 22.8994L2.25901 25.2787L7.59413 19.6594L8.74766 20.8744C9.94927 22.1379 11.9039 22.1379 13.1055 20.8744L15.3324 18.5119L16.0053 19.2206C16.1295 19.3809 16.3278 19.4548 16.52 19.4084C16.7103 19.362 16.8605 19.2037 16.9045 19.0034C16.9486 18.8009 16.8785 18.592 16.7263 18.4612L6.47263 7.66125C6.3765 7.55367 6.24433 7.49461 6.10414 7.4925C6.08812 7.4925 6.0721 7.4925 6.05607 7.4925Z" fill="#172836"/>
</svg>
